<?xml version="1.0" encoding="utf-8"?>
<svg xmlns="http://www.w3.org/2000/svg" xmlns:xlink="http://www.w3.org/1999/xlink" width="307.25" height="230.375" viewBox="800 650 958 753">
<defs>
  <clipPath id="clip7100">
    <rect x="307" y="138" width="1967" height="1475"/>
  </clipPath>
</defs>
<defs>
  <clipPath id="clip7101">
    <rect x="0" y="0" width="2458" height="1843"/>
  </clipPath>
</defs>
<defs>
  <clipPath id="clip7102">
    <rect x="817" y="663" width="947" height="424"/>
  </clipPath>
</defs>
<path clip-path="url(#clip7102)" d="
M817.374 1086.98 L1763.53 1086.98 L1763.53 663.865 L817.374 663.865  Z
  " fill="#ffffff" fill-rule="evenodd" fill-opacity="1"/>
<polyline clip-path="url(#clip7102)" style="stroke:#000000; stroke-width:4.301; stroke-opacity:1; fill:none" points="
  817.374,1086.98 1763.53,1086.98 1763.53,663.865 817.374,663.865 817.374,1086.98 
  "/>
<line clip-path="url(#clip7102)" x1="915.694" y1="723.57" x2="915.694" y2="752.243" style="stroke:#000000; stroke-width:4; stroke-opacity:1"/>
<line clip-path="url(#clip7102)" x1="915.694" y1="723.57" x2="887.021" y2="723.57" style="stroke:#000000; stroke-width:4; stroke-opacity:1"/>
<line clip-path="url(#clip7102)" x1="915.694" y1="723.57" x2="915.694" y2="694.897" style="stroke:#000000; stroke-width:4; stroke-opacity:1"/>
<line clip-path="url(#clip7102)" x1="915.694" y1="723.57" x2="944.367" y2="723.57" style="stroke:#000000; stroke-width:4; stroke-opacity:1"/>
<g clip-path="url(#clip7101)">
<text style="fill:#000000; fill-opacity:1; font-family:Arial,Helvetica Neue,Helvetica,sans-serif; font-size:60px; text-anchor:start;" transform="rotate(0, 1014.01, 745.57)" x="1014.01" y="745.57">&quot;+&quot;</text>
</g>
<line clip-path="url(#clip7102)" x1="915.694" y1="820.135" x2="887.021" y2="848.808" style="stroke:#000000; stroke-width:4; stroke-opacity:1"/>
<line clip-path="url(#clip7102)" x1="915.694" y1="820.135" x2="887.021" y2="791.462" style="stroke:#000000; stroke-width:4; stroke-opacity:1"/>
<line clip-path="url(#clip7102)" x1="915.694" y1="820.135" x2="944.367" y2="791.462" style="stroke:#000000; stroke-width:4; stroke-opacity:1"/>
<line clip-path="url(#clip7102)" x1="915.694" y1="820.135" x2="944.367" y2="848.808" style="stroke:#000000; stroke-width:4; stroke-opacity:1"/>
<g clip-path="url(#clip7101)">
<text style="fill:#000000; fill-opacity:1; font-family:Arial,Helvetica Neue,Helvetica,sans-serif; font-size:60px; text-anchor:start;" transform="rotate(0, 1014.01, 842.135)" x="1014.01" y="842.135">&quot;x&quot;</text>
</g>
<line clip-path="url(#clip7102)" x1="915.694" y1="916.7" x2="915.694" y2="945.373" style="stroke:#000000; stroke-width:4; stroke-opacity:1"/>
<line clip-path="url(#clip7102)" x1="915.694" y1="916.7" x2="887.021" y2="925.302" style="stroke:#000000; stroke-width:4; stroke-opacity:1"/>
<line clip-path="url(#clip7102)" x1="915.694" y1="916.7" x2="898.49" y2="888.027" style="stroke:#000000; stroke-width:4; stroke-opacity:1"/>
<line clip-path="url(#clip7102)" x1="915.694" y1="916.7" x2="932.898" y2="888.027" style="stroke:#000000; stroke-width:4; stroke-opacity:1"/>
<line clip-path="url(#clip7102)" x1="915.694" y1="916.7" x2="944.367" y2="925.302" style="stroke:#000000; stroke-width:4; stroke-opacity:1"/>
<g clip-path="url(#clip7101)">
<text style="fill:#000000; fill-opacity:1; font-family:Arial,Helvetica Neue,Helvetica,sans-serif; font-size:60px; text-anchor:start;" transform="rotate(0, 1014.01, 938.7)" x="1014.01" y="938.7">&quot;*&quot;</text>
</g>
<circle clip-path="url(#clip7102)" style="fill:none; stroke:#ffffff; stroke-width:4; stroke-opacity:1" cx="915.694" cy="1013.26" r="25"/>
<circle clip-path="url(#clip7102)" style="fill:none; stroke:#000000; stroke-width:4; stroke-opacity:1" cx="915.694" cy="1013.26" r="25"/>
<g clip-path="url(#clip7101)">
<text style="fill:#000000; fill-opacity:1; font-family:Arial,Helvetica Neue,Helvetica,sans-serif; font-size:60px; text-anchor:start;" transform="rotate(0, 1014.01, 1035.26)" x="1014.01" y="1035.26">&quot;o&quot;</text>
</g>
<polygon clip-path="url(#clip7102)" style="fill:#000000; fill-opacity:1" points="
  1231.94,697.764 1226.21,717.835 1206.13,714.968 1223.34,726.437 1214.74,746.509 1231.94,732.172 1249.14,746.509 1240.54,726.437 1257.75,714.968 1237.68,717.835 
  1231.94,697.764 
  "/>
<g clip-path="url(#clip7101)">
<text style="fill:#000000; fill-opacity:1; font-family:Arial,Helvetica Neue,Helvetica,sans-serif; font-size:60px; text-anchor:start;" transform="rotate(0, 1330.26, 745.57)" x="1330.26" y="745.57">&quot;p&quot;</text>
</g>
<polygon clip-path="url(#clip7102)" style="fill:#ffffff; fill-opacity:1" points="1231.94,797.196 1211.87,831.604 1252.01,831.604 1231.94,797.196 
  "/>
<polygon clip-path="url(#clip7102)" style="fill:#ffffff; fill-opacity:1" points="1231.94,843.074 1252.01,808.666 1211.87,808.666 1231.94,843.074 
  "/>
<polyline clip-path="url(#clip7102)" style="stroke:#000000; stroke-width:4; stroke-opacity:1; fill:none" points="
  1231.94,797.196 1211.87,831.604 1252.01,831.604 1231.94,797.196 
  "/>
<polyline clip-path="url(#clip7102)" style="stroke:#000000; stroke-width:4; stroke-opacity:1; fill:none" points="
  1231.94,843.074 1252.01,808.666 1211.87,808.666 1231.94,843.074 
  "/>
<g clip-path="url(#clip7101)">
<text style="fill:#000000; fill-opacity:1; font-family:Arial,Helvetica Neue,Helvetica,sans-serif; font-size:60px; text-anchor:start;" transform="rotate(0, 1330.26, 842.135)" x="1330.26" y="842.135">&quot;h&quot;</text>
</g>
<polygon clip-path="url(#clip7102)" style="fill:#000000; fill-opacity:1" points="
  1231.94,888.027 1203.27,916.7 1231.94,945.373 1260.61,916.7 1231.94,888.027 
  "/>
<g clip-path="url(#clip7101)">
<text style="fill:#000000; fill-opacity:1; font-family:Arial,Helvetica Neue,Helvetica,sans-serif; font-size:60px; text-anchor:start;" transform="rotate(0, 1330.26, 938.7)" x="1330.26" y="938.7">&quot;d&quot;</text>
</g>
<polygon clip-path="url(#clip7102)" style="fill:#000000; fill-opacity:1" points="
  1203.27,984.592 1203.27,1041.94 1260.61,1041.94 1260.61,984.592 1203.27,984.592 
  "/>
<g clip-path="url(#clip7101)">
<text style="fill:#000000; fill-opacity:1; font-family:Arial,Helvetica Neue,Helvetica,sans-serif; font-size:60px; text-anchor:start;" transform="rotate(0, 1330.26, 1035.26)" x="1330.26" y="1035.26">&quot;s&quot;</text>
</g>
<polygon clip-path="url(#clip7102)" style="fill:#000000; fill-opacity:1" points="
  1545.6,694.536 1516.93,751.883 1574.27,751.883 1545.6,694.536 
  "/>
<g clip-path="url(#clip7101)">
<text style="fill:#000000; fill-opacity:1; font-family:Arial,Helvetica Neue,Helvetica,sans-serif; font-size:60px; text-anchor:start;" transform="rotate(0, 1643.92, 740.681)" x="1643.92" y="740.681">&quot;^&quot;</text>
</g>
<polygon clip-path="url(#clip7102)" style="fill:#000000; fill-opacity:1" points="
  1574.27,791.101 1516.93,791.101 1545.6,848.448 1574.27,791.101 
  "/>
<g clip-path="url(#clip7101)">
<text style="fill:#000000; fill-opacity:1; font-family:Arial,Helvetica Neue,Helvetica,sans-serif; font-size:60px; text-anchor:start;" transform="rotate(0, 1643.92, 841.775)" x="1643.92" y="841.775">&quot;v&quot;</text>
</g>
<polygon clip-path="url(#clip7102)" style="fill:#000000; fill-opacity:1" points="
  1522.66,916.34 1557.07,936.411 1557.07,896.268 1522.66,916.34 
  "/>
<g clip-path="url(#clip7101)">
<text style="fill:#000000; fill-opacity:1; font-family:Arial,Helvetica Neue,Helvetica,sans-serif; font-size:60px; text-anchor:start;" transform="rotate(0, 1643.92, 938.34)" x="1643.92" y="938.34">&quot;&lt;&quot;</text>
</g>
<polygon clip-path="url(#clip7102)" style="fill:#000000; fill-opacity:1" points="
  1568.54,1012.9 1534.13,992.833 1534.13,1032.98 1568.54,1012.9 
  "/>
<g clip-path="url(#clip7101)">
<text style="fill:#000000; fill-opacity:1; font-family:Arial,Helvetica Neue,Helvetica,sans-serif; font-size:60px; text-anchor:start;" transform="rotate(0, 1643.92, 1034.9)" x="1643.92" y="1034.9">&quot;&gt;&quot;</text>
</g>
</svg>
